<svg width="389" height="522" viewBox="0 0 389 522" fill="none" xmlns="http://www.w3.org/2000/svg">
<path fill-rule="evenodd" clip-rule="evenodd" d="M288.209 5.24332C275.385 20.5808 270.97 35.6835 274.87 50.8882C278.949 66.7919 287.015 78.0206 315.652 107.659C332.531 125.127 338.52 132.95 341.495 141.412C344.951 151.248 343.659 157.273 335.87 167.626L330.644 174.574L338.795 182.682L346.946 190.79L349.984 187.528C360.762 175.955 366.33 163.442 366.34 150.768C366.356 132.324 358.551 118.675 332.423 91.4535C303.069 60.8724 296.976 52.0966 297.008 40.4485C297.027 33.5403 299.353 28.288 305.754 20.6956L309.795 15.9037L301.89 7.95187C297.543 3.57844 293.672 0 293.29 0C292.907 0 290.621 2.35899 288.209 5.24332ZM219.142 133.93C198.559 136.203 172.33 145.477 158.359 155.42C155.748 157.278 153.358 158.798 153.048 158.798C152.737 158.798 147.008 163.481 140.316 169.204C128.146 179.614 46.2058 261.406 35.6802 273.651C10.6531 302.766 -1.35059 336.955 0.120532 374.931C1.34297 406.481 10.7929 433.061 29.6239 457.917C39.8759 471.448 63.5627 493.211 75.7512 500.295C100.612 514.747 122.839 520.965 150.621 521.238C171.423 521.442 196.498 516.314 211.469 508.795C214.142 507.452 216.554 506.355 216.829 506.355C217.513 506.355 229.665 498.968 237.011 494.087C240.698 491.638 265.113 467.976 300.492 432.564C362.855 370.142 363.763 369.097 373.814 348.056C381.501 331.967 385.167 319.349 387.299 301.642C389.754 281.25 387.172 257.869 380.181 237.198C378.017 230.797 369.533 212.965 368.284 212.194C367.873 211.939 366.09 214.314 364.323 217.473C361.919 221.775 351.058 233.264 321.034 263.269C288.433 295.849 279.65 304.083 273.964 307.395C260.012 315.523 246.631 318.125 234.026 315.16C230.188 314.258 225.972 312.813 224.655 311.951C222.281 310.396 222.039 310.608 193.683 338.911C177.964 354.6 163.841 367.907 162.3 368.48C158.605 369.855 154.347 367.71 152.653 363.623C151.568 361.001 151.67 360.198 153.459 357.334C154.586 355.527 167.918 341.69 183.084 326.584C210.37 299.407 210.644 299.093 209.212 296.622C207.158 293.078 204.549 282.231 204.569 277.316C204.598 270.355 207.274 259.957 211.117 251.864C214.614 244.5 216.509 242.441 257.845 201.099C287.434 171.504 302.32 157.312 305.37 155.785C309.589 153.674 309.713 153.492 307.866 152.126C302.08 147.847 286.033 141.271 272.653 137.699C256.877 133.486 236.296 132.037 219.142 133.93ZM301.429 197.569C283.206 203.601 266.64 218.82 257.659 237.781C251.426 250.939 252.868 262.668 261.154 266.203C276.906 272.923 308.749 251.772 320.608 226.711C327.097 212.998 326.651 203.867 319.23 198.428C315.519 195.709 308.128 195.352 301.429 197.569Z" fill="white"/>
</svg>
