<svg width="356" height="278" viewBox="0 0 356 278" fill="none" xmlns="http://www.w3.org/2000/svg">
<path fill-rule="evenodd" clip-rule="evenodd" d="M62.9674 5.25C64.1014 8.138 66.3254 13.596 67.9104 17.381L70.7934 24.261L68.2134 30.381C64.6184 38.908 29.0814 124.96 20.8784 145C17.1634 154.075 11.6444 167.376 8.61336 174.559C0.97336 192.664 -0.506641 199.326 0.133359 212.726C0.416359 218.652 1.19336 224.962 1.86036 226.75L3.07336 230H13.8084C19.7134 230 24.7984 229.745 25.1104 229.434C25.4214 229.122 23.5134 223.519 20.8704 216.982C18.2264 210.445 15.5724 202.803 14.9704 199.999C13.4014 192.684 13.6234 178.394 15.4124 171.526C16.6834 166.649 25.9064 143.329 35.1004 121.75L37.1234 117H72.8064H108.489L118.823 142.25C124.506 156.137 132.052 174.7 135.592 183.5C146.462 210.527 148.025 213.871 154.207 223.337C161.4 234.352 175.392 248.601 186.11 255.826C204.769 268.403 222.806 274.912 244.906 277.043C274.168 279.866 303.602 272.428 326.675 256.38C330.139 253.971 333.176 252 333.425 252C333.674 252 333.877 257.175 333.877 263.5V275H344.877H355.877V216.5V158H305.377C255.544 158 254.877 158.026 254.877 160C254.877 161.966 255.544 162 294.377 162H333.877V202.985V243.971L328.127 248.494C324.964 250.982 318.774 254.782 314.369 256.938C274.865 276.278 222.604 265.452 187.766 230.711C174.288 217.27 169.173 209.235 160.58 188C156.463 177.825 150.168 162.3 146.592 153.5C143.016 144.7 136.616 128.95 132.37 118.5C128.124 108.05 120.626 89.6 115.708 77.5C110.791 65.4 101.729 43.018 95.5724 27.762L84.3774 0.0250015L72.6424 0.012001L60.9064 0L62.9674 5.25ZM87.9334 66.5C95.7724 85.75 103.208 104.088 104.457 107.25L106.728 113H72.6964C45.8574 113 38.7744 112.736 39.1864 111.75C39.4744 111.063 46.4394 94.3 54.6644 74.5C62.8894 54.7 70.3584 36.743 71.2614 34.596C72.1644 32.45 73.0784 30.875 73.2914 31.096C73.5044 31.318 80.0934 47.25 87.9334 66.5ZM234.474 44.607C214.525 48.209 191.212 59.085 177.586 71.145C174.746 73.659 173.328 76.067 171.928 80.75C170.901 84.188 170.184 87 170.336 87C170.488 87 173.709 83.963 177.495 80.25C189.191 68.781 202.255 61.504 219.469 56.87C230.87 53.801 253.599 53.779 266.581 56.825C287.079 61.634 307.362 72.266 322.293 86.03L326.51 89.916L333.774 82.604L341.037 75.292L335.707 70.807C320.037 57.623 299.434 48.2 278.167 44.491C267.474 42.627 245.112 42.686 234.474 44.607Z" fill="white"/>
</svg>
