<svg width="18" height="28" viewBox="0 0 18 28" fill="none" xmlns="http://www.w3.org/2000/svg">
<path d="M7.97017 27.7273V0.454544H9.71733V27.7273H7.97017ZM13.0092 9.17969C12.9098 8.24929 12.4908 7.52486 11.7521 7.00639C11.0206 6.48793 10.0689 6.22869 8.89702 6.22869C8.07315 6.22869 7.36648 6.35298 6.77699 6.60156C6.1875 6.85014 5.73651 7.1875 5.42401 7.61364C5.11151 8.03977 4.9517 8.52628 4.9446 9.07315C4.9446 9.5277 5.04759 9.92187 5.25355 10.2557C5.46662 10.5895 5.75426 10.8736 6.11648 11.108C6.47869 11.3352 6.87997 11.527 7.32031 11.6832C7.76065 11.8395 8.20455 11.9709 8.65199 12.0774L10.6974 12.5888C11.5213 12.7805 12.3132 13.0398 13.0732 13.3665C13.8402 13.6932 14.5256 14.1051 15.1293 14.6023C15.7401 15.0994 16.223 15.6996 16.5781 16.4027C16.9332 17.1058 17.1108 17.9297 17.1108 18.8743C17.1108 20.1527 16.7841 21.2784 16.1307 22.2514C15.4773 23.2173 14.5327 23.9737 13.2969 24.5206C12.0682 25.0604 10.5803 25.3303 8.8331 25.3303C7.13565 25.3303 5.66193 25.0675 4.41193 24.5419C3.16903 24.0163 2.19602 23.2493 1.4929 22.2408C0.796875 21.2322 0.420455 20.0036 0.363636 18.5547H4.25213C4.30895 19.3146 4.54332 19.9467 4.95526 20.451C5.36719 20.9553 5.90341 21.3317 6.56392 21.5803C7.23153 21.8288 7.97727 21.9531 8.80114 21.9531C9.66051 21.9531 10.4134 21.8253 11.0597 21.5696C11.7131 21.3068 12.2244 20.9446 12.5938 20.483C12.9631 20.0142 13.1513 19.4673 13.1584 18.8423C13.1513 18.2741 12.9844 17.8054 12.6577 17.4361C12.331 17.0597 11.8729 16.7472 11.2834 16.4986C10.701 16.2429 10.0192 16.0156 9.23793 15.8168L6.75568 15.1776C4.95881 14.7159 3.53835 14.0163 2.49432 13.0788C1.45739 12.1342 0.938921 10.8807 0.938921 9.31818C0.938921 8.03267 1.28693 6.90696 1.98295 5.94105C2.68608 4.97514 3.64134 4.22585 4.84872 3.69318C6.05611 3.15341 7.4233 2.88352 8.95028 2.88352C10.4986 2.88352 11.8551 3.15341 13.0199 3.69318C14.1918 4.22585 15.1115 4.96804 15.7791 5.91974C16.4467 6.86435 16.7912 7.95099 16.8125 9.17969H13.0092Z" fill="#979797"/>
</svg>
