<svg width="510" height="512" viewBox="0 0 510 512" fill="none" xmlns="http://www.w3.org/2000/svg">
<path fill-rule="evenodd" clip-rule="evenodd" d="M248.335 1.173C247.144 1.841 237.075 10.038 225.959 19.388L205.749 36.388L230.374 36.655C243.918 36.803 266.082 36.803 279.626 36.655L304.251 36.388L284.041 19.388C272.925 10.038 262.856 1.841 261.665 1.173C258.876 -0.391 251.124 -0.391 248.335 1.173ZM102.241 68.883C100.448 69.976 98.088 72.336 96.995 74.129C95.05 77.318 95.007 79.349 95.004 168.893L95 260.398L147.399 301.143L199.798 341.888L255.149 341.864L310.5 341.839L362.75 301.125L415 260.41L414.996 168.899C414.993 79.349 414.95 77.318 413.005 74.129C411.912 72.336 409.552 69.976 407.759 68.883C404.545 66.923 402.417 66.895 255 66.895C107.583 66.895 105.455 66.923 102.241 68.883ZM268.5 102.997C292.092 105.888 313.505 115.914 330.588 132.069C355.45 155.579 367.492 187.436 363.057 217.962C361.439 229.101 355.925 245.961 351.467 253.405C335.5 280.061 301.128 287.268 283.424 267.672L279.884 263.754L275.192 266.743C266.651 272.185 258.806 274.167 247.846 273.654C234.46 273.027 225.709 268.926 215.403 258.452C186.046 228.615 192.844 173.112 228.009 155.52C242.108 148.467 256.878 148.035 272 154.233C273.05 154.664 274.022 153.712 275.242 151.057C277.683 145.746 283.67 142.478 289.712 143.159C295.051 143.761 298.593 146.157 301.183 150.92C302.958 154.184 303.059 157.008 302.908 198.967C302.792 230.919 303.072 244.155 303.896 245.694C305.776 249.207 308.453 250.112 313.185 248.838C322.144 246.426 326.9 240.075 331.513 224.366C335.329 211.366 335.309 197.626 331.455 186.055C324.753 165.929 309.989 149.251 290.578 139.878C279.482 134.52 272.386 132.764 259.396 132.162C234.886 131.026 214.113 139.408 197.397 157.178C182.595 172.913 175.631 190.49 175.72 211.888C175.837 240.176 188.897 263.864 212.954 279.427C224.431 286.851 234.361 289.975 254.292 292.432C267.109 294.012 272.141 309.289 262.603 317.663C258.259 321.478 254.059 322.2 243.709 320.914C185.159 313.638 143.101 264.066 146.295 206.097C149.769 143.045 206.277 95.371 268.5 102.997ZM40.068 175.87C26.63 187.207 15.51 196.912 15.358 197.435C15.206 197.959 26.201 206.999 39.791 217.524L64.5 236.66L64.77 216.274C64.919 205.062 64.919 186.746 64.77 175.573L64.5 155.258L40.068 175.87ZM445 195.924C445 228.752 445.254 236.932 446.25 236.144C446.938 235.6 458.075 226.95 471 216.922C483.925 206.894 494.635 198.33 494.799 197.892C494.964 197.453 487.989 191.107 479.299 183.789C470.61 176.472 459.337 166.937 454.25 162.6L445 154.716V195.924ZM242.22 181.466C236.122 184.504 232.625 188.356 229.124 195.888C226.93 200.608 226.576 202.734 226.62 210.888C226.682 222.478 229.241 230.016 235.385 236.708C247.328 249.717 261.09 246.605 269.311 229.036C271.738 223.852 272.38 220.949 272.776 213.389C273.606 197.51 268.23 185.168 258.571 180.781C252.969 178.236 248.308 178.432 242.22 181.466ZM0 356.888V490.129L4.25 486.691C6.588 484.8 44.837 455.008 89.25 420.487C133.662 385.966 170 357.346 170 356.888C170 356.43 133.663 327.81 89.25 293.289C44.838 258.768 6.588 228.976 4.25 227.085L0 223.647V356.888ZM425.024 289.901C378.562 326.115 340.411 356.155 340.245 356.654C340.078 357.154 378.205 387.325 424.971 423.701L510 489.84V356.864C510 283.727 509.887 223.926 509.75 223.972C509.613 224.018 471.486 253.686 425.024 289.901ZM109.641 441.931L19.783 511.888H255.056H490.328L485.517 508.138C482.871 506.076 442.41 474.585 395.603 438.159L310.5 371.929L255 371.952L199.5 371.974L109.641 441.931Z" fill="white"/>
</svg>
