<svg width="40" height="40" viewBox="0 0 40 40" fill="none" xmlns="http://www.w3.org/2000/svg">
<rect width="40" height="40" rx="20" fill="#002D5B"/>
<path fill-rule="evenodd" clip-rule="evenodd" d="M30.5576 8.06535C30.081 8.15564 29.5918 8.33386 28.9781 8.64078C28.0014 9.1293 27.8103 9.28741 25.9181 11.1719L24.1595 12.9233L16.763 12.9236C11.892 12.9238 9.30539 12.9409 9.18742 12.9736C8.96535 13.0353 8.72297 13.3031 8.67952 13.5348C8.63103 13.7933 8.772 14.1214 8.99314 14.2647C9.09108 14.3282 11.3245 15.2302 13.9563 16.2694C16.5881 17.3086 18.7711 18.1705 18.8074 18.1848C18.849 18.2013 17.7767 19.3077 15.9023 21.1823L12.9312 24.1537H10.0733C7.56572 24.1537 7.20215 24.163 7.10693 24.2297C6.99683 24.3068 6.96665 24.4675 7.04038 24.5837C7.07993 24.6461 7.82269 24.9507 10.5692 26.031C11.8976 26.5535 11.9191 26.5642 11.9689 26.7265C12.016 26.88 12.0065 26.9064 11.8304 27.11C11.5383 27.4474 11.5161 27.811 11.769 28.1116C11.9348 28.3087 12.1275 28.4016 12.3702 28.4016C12.6054 28.4016 12.7267 28.3469 12.9409 28.1442C13.0928 28.0005 13.1027 27.9981 13.2763 28.0646L13.4552 28.1331L14.3894 30.5207C15.1924 32.5731 15.3399 32.9142 15.4404 32.9508C15.5227 32.9809 15.5911 32.9713 15.6723 32.9181L15.7873 32.8427V30.0239V27.2051L18.8127 24.18C20.4766 22.5163 21.8477 21.165 21.8596 21.1773C21.8715 21.1895 22.721 23.3529 23.7473 25.9847C24.7736 28.6165 25.654 30.8499 25.7036 30.9479C25.8261 31.1896 26.0674 31.3313 26.3567 31.3313C26.6366 31.3313 26.8406 31.2202 26.9844 30.9895L27.0909 30.8186L27.1039 23.3499L27.1168 15.8813L28.8165 14.1703C30.6612 12.3135 30.8941 12.0276 31.4057 10.9912C31.8807 10.0292 32.1059 9.02789 31.952 8.56183C31.8711 8.31652 31.6166 8.10993 31.3159 8.04548C31.0181 7.98161 30.9966 7.98215 30.5576 8.06535Z" fill="white"/>
</svg>
