<svg width="500" height="127" viewBox="0 0 500 127" fill="none" xmlns="http://www.w3.org/2000/svg">
<path fill-rule="evenodd" clip-rule="evenodd" d="M211.687 1.75616C212.068 2.72222 212.814 4.53358 213.345 5.78129L214.31 8.05059L208.258 22.6739C204.929 30.7171 201.713 38.5018 201.112 39.9736C200.033 42.6162 194.588 55.7741 192.641 60.4435C190.96 64.474 190.474 67.0821 190.644 71.1584C190.734 73.3103 190.989 75.1668 191.276 75.7659L191.759 76.7695L195.076 76.8658C196.901 76.919 198.584 76.8892 198.817 76.7999C199.123 76.6828 198.793 75.5395 197.631 72.6851C196.746 70.5115 195.851 67.9371 195.643 66.9644C195.111 64.4823 195.171 59.7039 195.764 57.4289C196.178 55.8397 199.406 47.6686 202.363 40.7263L203.04 39.1374H214.971H226.902L229.195 44.7404C233.909 56.2568 237.656 65.4688 238.548 67.7378C243.421 80.1282 254.609 89.2469 268.534 92.1782C272.331 92.977 280.967 92.9807 284.667 92.1846C290.205 90.993 295.72 88.6669 299.897 85.7614C301.056 84.9555 302.072 84.2959 302.155 84.2959C302.238 84.2959 302.306 86.0269 302.306 88.1427V91.9895H305.986H309.665V72.4209V52.8522H292.773C276.103 52.8522 275.88 52.8609 275.88 53.5212C275.88 54.1788 276.103 54.1902 289.093 54.1902H302.306V67.8826V81.575L300.884 82.729C295.66 86.9693 289.189 89.0723 281.399 89.0613C273.318 89.0499 266.613 86.9074 259.252 81.9831C255.624 79.5569 251.328 75.3649 248.739 71.7261C246.76 68.944 246.076 67.3153 224.833 14.8083L218.847 0.0123768L214.921 0.00635564L210.995 0L211.687 1.75616ZM220.493 23.4155C223.364 30.4987 225.858 36.6329 226.035 37.0467L226.359 37.7993H214.957C205.968 37.7993 203.591 37.7107 203.724 37.3812C203.817 37.1514 204.902 34.5546 206.135 31.611C207.368 28.6673 209.805 22.798 211.551 18.5682C214.824 10.638 214.996 10.2523 215.17 10.4309C215.227 10.4895 217.622 16.3323 220.493 23.4155ZM269.055 14.9214C262.382 16.1263 254.584 19.7644 250.026 23.7985C249.076 24.6395 248.601 25.445 248.133 27.0115C247.789 28.1615 247.55 29.1021 247.6 29.1021C247.651 29.1021 248.729 28.0862 249.995 26.8442C260.62 16.4257 277.305 15.2549 291.851 23.9076C293.328 24.7863 295.682 26.4649 297.082 27.6383C298.482 28.8115 299.745 29.7712 299.888 29.7712C300.032 29.7712 301.174 28.7392 302.425 27.4781L304.701 25.1851L302.918 23.6851C297.677 19.2753 290.784 16.1233 283.671 14.8826C280.094 14.259 272.614 14.2788 269.055 14.9214ZM139.831 103.16C136.483 104.251 133.644 106.696 132.28 109.662C131.701 110.921 131.565 111.84 131.575 114.402C131.591 118.202 132.225 119.91 134.545 122.389C138.431 126.543 145.936 127.348 151.024 124.157L152.445 123.266L152.446 118.667L152.447 114.067H150.774H149.102V117.886V121.706L147.513 122.318C144.392 123.523 140.513 122.943 137.79 120.866C135.347 119.003 134.224 114.09 135.531 110.985C137.611 106.047 144.665 104.201 149.121 107.429L150.527 108.448L151.567 107.408C152.906 106.068 152.628 105.585 149.636 104.046C147.624 103.012 147.062 102.88 144.314 102.795C142.366 102.736 140.724 102.869 139.831 103.16ZM342.877 103.158C339.645 104.217 337.196 106.257 335.695 109.142C334.585 111.276 334.435 116.231 335.402 118.799C337.495 124.356 343.973 127.34 350.241 125.635C352.188 125.106 355.493 123.111 355.493 122.466C355.493 122.306 354.962 121.77 354.314 121.276L353.136 120.377L352.118 121.233C348.977 123.876 343.413 123.421 340.354 120.272C336.448 116.25 337.837 108.918 342.925 106.69C346.076 105.311 349.868 105.677 352.127 107.578L353.155 108.443L354.3 107.492C354.929 106.969 355.455 106.429 355.469 106.292C355.503 105.938 352.867 104.071 351.479 103.466C349.849 102.757 344.667 102.571 342.877 103.158ZM430.523 103.295C427.074 104.53 424.564 106.904 423.362 110.066C422.475 112.401 422.503 116.448 423.423 118.909C424.314 121.289 426.77 123.839 429.329 125.038C431.042 125.841 431.653 125.942 434.771 125.942C437.934 125.942 438.471 125.85 440.177 125.012C442.665 123.79 444.665 121.806 445.759 119.471C446.524 117.84 446.646 117.141 446.646 114.402C446.646 111.662 446.524 110.963 445.759 109.332C444.673 107.015 442.666 105.012 440.243 103.827C437.769 102.616 433.128 102.362 430.523 103.295ZM487.695 103.305C484.174 104.564 482.471 107.456 483.256 110.843C483.852 113.415 485.688 114.622 491.303 116.131C495.554 117.273 496.449 117.856 496.594 119.574C496.779 121.779 494.797 123.098 491.303 123.093C489.375 123.09 486.619 122.356 485.167 121.459C484.543 121.073 483.941 120.757 483.829 120.757C483.453 120.757 482.556 122.821 482.732 123.281C482.829 123.532 483.555 124.068 484.345 124.473C488.764 126.731 494.739 126.647 497.841 124.281C499.419 123.077 500 121.806 500 119.559C500 116.097 498.12 114.442 492.641 113.078C487.626 111.83 486.62 111.164 486.62 109.095C486.62 105.991 491.031 104.767 495.875 106.525C497.118 106.976 498.174 107.307 498.221 107.26C498.268 107.214 498.541 106.612 498.829 105.924L499.351 104.673L497.447 103.801C494.845 102.61 490.286 102.378 487.695 103.305ZM5.17721 113.801C2.48543 119.743 0.183687 124.868 0.0615917 125.189C-0.132423 125.702 0.0642677 125.775 1.64381 125.775H3.44748L4.63832 123.015L5.82883 120.255H11.7968H17.7647L18.9569 123.009L20.1491 125.763L21.9053 125.769C22.8713 125.772 23.6614 125.646 23.6614 125.487C23.6614 125.33 21.4105 120.249 18.6592 114.198L13.6573 103.196L11.864 103.097L10.0711 102.999L5.17721 113.801ZM26.016 103.781C26.1993 104.195 28.4359 109.275 30.9861 115.071L35.6227 125.608L37.4194 125.705L39.216 125.801L43.97 114.977C46.5849 109.024 48.8244 103.891 48.9472 103.572C49.1445 103.057 48.9646 103.002 47.383 103.093L45.5961 103.196L41.6037 112.161C39.408 117.092 37.5097 121.006 37.3849 120.858C37.2602 120.711 35.4384 116.641 33.3367 111.815L29.5153 103.041L27.5989 103.035C25.7354 103.029 25.6919 103.049 26.016 103.781ZM56.2759 114.105C53.5162 120.206 51.2081 125.328 51.1469 125.486C51.0854 125.645 51.8564 125.775 52.8596 125.775H54.684L55.9511 122.931L57.2179 120.088H63.0406H68.8631L70.1767 122.931L71.4903 125.775H73.316H75.1414L74.6751 124.688C74.4189 124.09 72.1182 119.009 69.5629 113.398L64.9166 103.196L63.1052 103.104L61.2935 103.012L56.2759 114.105ZM81.5312 114.402V125.775H83.1981H84.8646L84.9542 117.561L85.0435 109.348L91.6752 117.561L98.3071 125.775H99.787H101.267V114.402V103.028H99.6003H97.9338L97.8441 111.307L97.7548 119.586L91.0647 111.308L84.3745 103.031L82.9529 103.029L81.5312 103.028V114.402ZM107.623 104.534V106.039H111.637H115.651V115.907V125.775H117.324H118.996V115.907V106.039H122.843H126.69V104.534V103.028H117.156H107.623V104.534ZM163.318 114.082C160.559 120.177 158.25 125.301 158.189 125.469C158.128 125.637 158.887 125.775 159.876 125.775H161.674L162.955 122.931L164.235 120.088H170.064H175.893L177.2 122.931L178.508 125.775H180.338H182.169L179.711 120.339C178.359 117.35 176.052 112.269 174.584 109.049L171.915 103.196L170.126 103.098L168.336 103L163.318 114.082ZM188.574 114.402V125.775H190.246H191.919V122.43V119.085H195.379H198.839L201.112 122.291C202.362 124.054 203.571 125.568 203.799 125.656C204.027 125.743 204.909 125.768 205.759 125.711L207.304 125.608L204.73 121.95C202.984 119.468 202.301 118.244 202.605 118.143C203.548 117.829 205.765 115.513 206.347 114.234C207.634 111.409 206.955 107.683 204.751 105.476C202.689 103.41 201.042 103.028 194.199 103.028H188.574V114.402ZM215.334 114.372V125.775L221.439 125.771C228.315 125.766 230.115 125.445 232.755 123.751C236.044 121.64 237.545 118.4 237.359 113.811C237.169 109.12 235.286 106.176 231.188 104.164C229.235 103.205 229.149 103.195 222.275 103.083L215.334 102.97V114.372ZM245.44 114.402V125.775H253.803H262.165V124.27V122.764H255.642H249.119V119.252V115.74H254.806H260.493V114.234V112.729H254.806H249.119V109.384V106.039H255.475H261.831V104.534V103.028H253.635H245.44V114.402ZM281.232 103.119C281.232 103.187 283.463 108.275 286.189 114.425L291.146 125.608L292.963 125.697L294.78 125.786L299.63 114.693C302.298 108.592 304.531 103.472 304.592 103.315C304.653 103.157 303.901 103.03 302.919 103.032L301.135 103.036L297.155 112.07C294.967 117.039 293.085 121.014 292.975 120.904C292.865 120.794 291.039 116.765 288.916 111.95L285.058 103.196L283.145 103.095C282.093 103.04 281.232 103.051 281.232 103.119ZM314.615 107.282C313.566 109.634 311.335 114.569 309.657 118.248C307.979 121.928 306.526 125.127 306.427 125.357C306.297 125.662 306.743 125.775 308.081 125.775H309.913L311.18 122.931L312.447 120.088H318.27H324.093L325.425 122.931L326.757 125.775H328.574C330.333 125.775 330.38 125.751 330.057 125.022C329.874 124.608 327.569 119.528 324.936 113.733L320.148 103.196L318.335 103.101L316.523 103.006L314.615 107.282ZM364.78 113.823C362.079 119.776 359.77 124.901 359.652 125.211C359.465 125.697 359.685 125.775 361.239 125.775H363.043L364.233 123.015L365.423 120.255L371.324 120.154L377.225 120.052L378.547 122.913L379.869 125.775H381.697H383.526L381.742 121.844C380.762 119.683 378.453 114.602 376.613 110.555L373.267 103.196L371.48 103.098L369.692 103L364.78 113.823ZM385.329 104.45L385.431 105.872L389.362 105.966L393.292 106.06V115.918V125.775H394.965H396.637V115.918V106.06L400.568 105.966L404.498 105.872L404.601 104.45L404.704 103.028H394.965H385.225L385.329 104.45ZM411.021 114.402V125.775H412.694H414.366V114.402V103.028H412.694H411.021V114.402ZM454.842 114.402V125.775H456.508H458.175L458.265 117.527L458.354 109.279L464.998 117.527L471.643 125.775H473.11H474.577V114.402V103.028H472.911H471.244L471.154 111.298L471.065 119.567L464.383 111.298L457.702 103.028H456.272H454.842V114.402ZM438.392 106.563C443.615 108.742 445.036 115.975 441.084 120.263C436.79 124.921 428.654 123.303 426.563 117.375C425.265 113.698 426.67 109.18 429.69 107.313C432.339 105.675 435.591 105.395 438.392 106.563ZM201.196 106.808C203.333 107.955 204.18 111.713 202.736 113.65C201.381 115.469 200.143 115.896 195.849 116.026L191.919 116.145V111.057V105.97L196.016 106.099C199.074 106.195 200.388 106.375 201.196 106.808ZM229.551 106.945C232.346 108.418 234.052 111.245 234.052 114.402C234.052 117.558 232.346 120.385 229.551 121.858C228.422 122.453 227.479 122.585 223.53 122.699L218.847 122.834V114.402V105.969L223.53 106.104C227.479 106.218 228.422 106.35 229.551 106.945ZM14.0992 111.942C15.3108 114.729 16.3023 117.1 16.3023 117.21C16.3023 117.321 14.2541 117.412 11.7506 117.412C7.65123 117.412 7.22005 117.357 7.41172 116.858C8.03625 115.231 11.7613 106.739 11.8232 106.802C11.863 106.842 12.8873 109.155 14.0992 111.942ZM172.478 112.163L174.798 117.412H170.117C167.518 117.412 165.487 117.28 165.548 117.114C166.012 115.873 170.024 106.786 170.083 106.842C170.125 106.881 171.202 109.276 172.478 112.163ZM373.815 112.144L376.15 117.412H371.472C367.422 117.412 366.821 117.344 366.99 116.903C367.532 115.489 371.368 106.75 371.42 106.808C371.453 106.845 372.531 109.246 373.815 112.144ZM65.6006 112.478L67.7696 117.412H63.1052H58.4412L58.8964 116.325C61.3209 110.535 62.96 107.07 63.1738 107.285C63.3156 107.427 64.4078 109.764 65.6006 112.478ZM320.83 112.478L322.999 117.412H318.334H313.67L314.126 116.325C316.55 110.535 318.189 107.07 318.403 107.285C318.545 107.427 319.637 109.764 320.83 112.478Z" fill="white"/>
</svg>
