<svg width="446" height="512" viewBox="0 0 446 512" fill="none" xmlns="http://www.w3.org/2000/svg">
<path fill-rule="evenodd" clip-rule="evenodd" d="M64.5906 1.01219C46.8996 4.48319 28.8236 15.3012 17.4896 29.2002C11.5196 36.5212 4.23862 50.7502 1.76662 59.9252C0.127617 66.0092 0.0156173 78.5472 0.0156173 255.925C0.0156173 469.512 -0.723382 449.843 7.96562 467.425C17.8826 487.491 34.3356 501.462 57.0156 509.075L64.0156 511.425L186.516 511.716C277.1 511.931 310.112 511.705 313.224 510.848C326.534 507.181 333.791 490.387 327.595 477.588C324.886 471.992 318.956 466.673 313.658 465.086C310.815 464.234 279.024 463.925 194.199 463.925C114.064 463.925 76.9886 463.588 73.3146 462.826C62.7486 460.634 53.2636 452.467 49.8196 442.596C48.1066 437.686 48.0156 428.273 48.0156 255.925C48.0156 82.9692 48.1016 74.1792 49.8356 69.2052C52.2536 62.2732 59.1576 54.7392 66.3126 51.2252L72.0156 48.4252L192.516 47.9252C307.448 47.4482 313.189 47.3392 316.76 45.5642C331.863 38.0562 334.366 16.6562 321.436 5.58819C319.288 3.75019 315.788 1.7242 313.658 1.08619C308.986 -0.313805 71.7076 -0.383805 64.5906 1.01219ZM302.842 118.069C293.807 119.64 286.649 126.219 283.978 135.407C282.128 141.771 283.076 148.893 286.498 154.351C287.558 156.042 305.098 174.075 325.476 194.425L362.527 231.425L264.692 231.925L166.858 232.425L161.964 235.451C158.93 237.327 155.918 240.339 154.042 243.373C151.364 247.706 151.016 249.148 151.016 255.925C151.016 262.702 151.364 264.144 154.042 268.477C155.918 271.511 158.93 274.523 161.964 276.399L166.858 279.425L264.692 279.925L362.527 280.425L325.452 317.425C299.653 343.172 287.638 355.86 285.947 359.142C283.128 364.611 282.642 373.896 284.891 379.28C290.023 391.563 305.181 397.406 317.516 391.856C324.027 388.927 439.47 273.62 443.042 266.479C446.173 260.218 446.329 252.329 443.447 245.925C441.902 242.49 427.526 227.502 382.719 182.608C350.432 150.259 322.038 122.615 319.62 121.177C314.484 118.124 308.696 117.052 302.842 118.069Z" fill="black"/>
</svg>
