<svg width="513" height="512" viewBox="0 0 513 512" fill="none" xmlns="http://www.w3.org/2000/svg">
<path fill-rule="evenodd" clip-rule="evenodd" d="M226.086 1.06488C144.197 11.4859 74.101 58.1349 33.324 129.351C-11.806 208.17 -11.044 307.565 35.287 385.271C77.834 456.63 149.423 502.389 231.505 510.69C246.472 512.204 279.697 511.39 294.086 509.158C377.315 496.242 449.293 443.367 486.058 368.133C503.907 331.607 512.086 296.257 512.086 255.633C512.086 128.898 420.06 21.8669 294.086 2.08888C279.836 -0.148117 240.3 -0.743117 226.086 1.06488ZM273.586 20.6519C331.132 25.3859 382.285 48.9179 422.543 89.1759C452.235 118.868 473.919 156.517 484.005 195.892C502.013 266.197 487.893 338.76 445.039 396.133C412.84 439.239 366.568 470.546 315.827 483.554C249.507 500.556 181.714 489.121 125.086 451.381C77.996 419.997 42.043 369.543 28.167 315.374C19.703 282.332 18.181 248.891 23.671 216.633C36.343 142.178 84.33 77.6599 151.586 44.6519C168.216 36.4909 181.052 31.6319 196.345 27.7119C223.267 20.8099 248.013 18.5479 273.586 20.6519ZM165.984 123.017C159.184 127.712 159.586 119.352 159.586 256.133C159.586 394.643 159.022 383.958 166.584 388.631C174.384 393.452 170.2 395.521 274.586 335.232C390.084 268.525 392.948 266.823 395.461 263.387C398.205 259.637 398.205 251.629 395.461 247.879C392.949 244.445 390.126 242.767 274.586 176.027C188.063 126.049 179.14 121.125 174.586 120.842C170.57 120.592 168.877 121.02 165.984 123.017ZM275.163 200.157C327.096 230.145 369.586 255.109 369.586 255.633C369.586 256.381 181.7 365.633 180.413 365.633C180.233 365.633 180.086 316.133 180.086 255.633C180.086 195.133 180.233 145.633 180.413 145.633C180.594 145.633 223.231 170.169 275.163 200.157Z" fill="white" fill-opacity="0.8"/>
</svg>
