<svg width="433" height="512" viewBox="0 0 433 512" fill="none" xmlns="http://www.w3.org/2000/svg">
<path fill-rule="evenodd" clip-rule="evenodd" d="M200.401 0.368847C180.726 3.96585 170.941 6.96185 158.401 13.2298C131.375 26.7388 108.255 50.7159 96.5687 77.3529C88.4207 95.9249 85.3497 110.686 85.3547 131.262C85.3627 170.933 101.752 205.695 133.057 232.44C138.46 237.055 138.549 237.214 136.258 238.126C127.741 241.518 106.457 252.555 98.9007 257.499C37.9587 297.371 0.533743 364.646 0.011743 435.262C-0.121257 453.179 0.781743 457.514 7.59474 471.686C11.8977 480.637 13.7587 483.253 20.7537 490.186C30.0067 499.358 38.3257 504.596 49.9007 508.538L57.9007 511.262H216.401H374.901L382.901 508.538C394.476 504.596 402.795 499.358 412.048 490.186C419.043 483.253 420.904 480.637 425.207 471.686C432.02 457.514 432.923 453.179 432.79 435.262C432.268 364.646 394.843 297.371 333.901 257.499C326.345 252.555 305.061 241.518 296.544 238.126C294.253 237.214 294.342 237.055 299.745 232.44C324.144 211.595 339.629 185.477 345.501 155.262C347.898 142.928 348.125 121.026 345.979 109.048C336.45 55.8609 296.26 14.0278 243.401 2.27385C236.136 0.657847 206.098 -0.672153 200.401 0.368847ZM241.852 43.1938C266.764 50.6408 286.46 67.1878 297.876 90.2618C303.928 102.494 305.998 109.509 307.275 122.108C311.064 159.49 291.196 195.751 257.675 212.631C241.757 220.647 223.182 224.003 206.356 221.903C175.301 218.027 150.008 200.783 135.488 173.586C125.183 154.285 122.368 129.624 127.937 107.428C130.438 97.4588 139.544 80.2149 146.635 72.0199C160.491 56.0079 177.266 46.0568 198.514 41.2458C208.991 38.8738 230.658 39.8478 241.852 43.1938ZM245.659 265.172C258.714 267.402 269.543 270.518 282.708 275.833C347.927 302.163 392.207 366.25 392.797 435.167C392.893 446.281 392.686 447.721 390.25 452.917C387.117 459.6 381.534 465.321 374.779 468.771L369.901 471.262H216.401H62.9007L58.0227 468.771C51.2677 465.321 45.6847 459.6 42.5517 452.917C40.1157 447.721 39.9087 446.281 40.0047 435.167C40.5237 374.461 75.2967 316.482 129.806 285.431C147.101 275.579 171.6 267.251 190.401 264.834C195.076 264.233 200.026 263.551 201.401 263.318C206.549 262.447 237.228 263.732 245.659 265.172Z" fill="black"/>
</svg>
