<svg width="283" height="512" viewBox="0 0 283 512" fill="none" xmlns="http://www.w3.org/2000/svg">
<path fill-rule="evenodd" clip-rule="evenodd" d="M263.527 511.334C267.008 510.532 274.432 504.994 277.123 501.191C282.456 493.656 283.546 484.011 279.965 476.027C278.392 472.519 254.206 447.777 170.239 363.777L62.53 256.027L170.239 148.277C254.206 64.2772 278.392 39.5352 279.965 36.0272C284.011 27.0042 281.638 14.8511 274.421 7.63315C269.942 3.15515 262.406 0.0471497 256.027 0.0471497C244.026 0.0471497 250.758 -6.10985 122.324 122.324C-6.10997 250.758 0.0470276 244.026 0.0470276 256.027C0.0470276 268.028 -6.10997 261.296 122.324 389.73C250.953 518.359 244.137 512.131 256.027 511.901C259.052 511.843 262.427 511.588 263.527 511.334Z" fill="white"/>
</svg>
