<svg width="427" height="428" viewBox="0 0 427 428" fill="none" xmlns="http://www.w3.org/2000/svg">
<path fill-rule="evenodd" clip-rule="evenodd" d="M58.396 0.769026C52.678 2.08603 44.86 9.53303 43.332 15.117C42.584 17.853 42.236 43.641 42.233 96.697L42.227 174.277L34.477 178.178C18.973 185.982 5.97701 202.351 1.57901 219.617C-0.520991 227.86 -0.526991 242.198 1.56501 250.322C6.33401 268.844 20.206 285.598 36.676 292.729L42.193 295.117L42.216 351.617C42.231 389.356 42.602 409.445 43.332 412.117C44.95 418.029 52.533 425.011 59.031 426.57C68.765 428.905 79.988 423.22 83.839 414.004C84.966 411.305 85.238 399.831 85.288 352.899L85.348 295.117L93.538 291.215C109.727 283.502 122.924 266.229 126.845 247.617C129.816 233.52 127.066 216.573 119.624 203.117C115.115 194.964 101.965 182.564 93.227 178.226L85.727 174.502L85.227 94.157L84.727 13.813L81.585 9.46502C76.343 2.20902 67.132 -1.24497 58.396 0.769026ZM208.727 0.531027C201.815 2.26303 197.114 6.01703 193.594 12.617C191.937 15.723 191.69 19.045 191.397 42.117L191.067 68.117L183.897 71.503C174.817 75.79 161.288 88.982 156.413 98.303C149.708 111.124 147.347 129.777 150.737 143.157C155.193 160.746 167.346 176.294 183.007 184.442L191.185 188.696L191.456 299.907L191.727 411.117L193.88 415.117C198.044 422.855 204.729 426.94 213.227 426.94C221.725 426.94 228.41 422.855 232.574 415.117L234.727 411.117L234.998 299.907L235.269 188.696L243.447 184.442C259.108 176.294 271.261 160.746 275.717 143.157C279.107 129.777 276.746 111.124 270.041 98.303C265.238 89.121 251.7 75.944 242.562 71.557L235.397 68.117L235.062 42.117C234.748 17.758 234.591 15.864 232.574 12.117C227.805 3.25603 217.613 -1.69597 208.727 0.531027ZM355.981 1.19303C350.631 2.86403 344.724 8.18302 342.615 13.23C341.462 15.99 341.227 33.549 341.227 116.901V217.249L335.977 219.445C318.468 226.769 303.816 245.148 299.8 264.825C297.815 274.549 297.815 280.685 299.8 290.409C303.816 310.086 318.468 328.465 335.977 335.789L341.227 337.985V374.485C341.227 409.699 341.302 411.141 343.36 415.391C347.504 423.953 358.308 428.884 367.725 426.513C373.979 424.938 381.551 417.859 383.122 412.117C383.816 409.577 384.218 395.331 384.221 373.086L384.227 338.056L391.477 334.431C404.441 327.949 413.806 318.385 420.179 305.117C425.007 295.068 426.554 288.394 426.554 277.617C426.554 266.84 425.007 260.166 420.179 250.117C413.806 236.849 404.441 227.285 391.477 220.803L384.227 217.178L384.221 118.148C384.218 51.418 383.87 17.871 383.155 15.296C380.145 4.45803 367.141 -2.29097 355.981 1.19303Z" fill="white"/>
</svg>
