<svg width="494" height="512" viewBox="0 0 494 512" fill="none" xmlns="http://www.w3.org/2000/svg">
<path fill-rule="evenodd" clip-rule="evenodd" d="M95 65V130H247.5H400V65V0H247.5H95V65ZM0 269.5V395H40.5H81V345V295H247H413V345V395H453.5H494V269.5V144H247H0V269.5ZM63.782 179.553C80.41 186.499 81.511 210.249 65.564 217.969C57.47 221.887 47.661 220.547 41.153 214.633C32.455 206.73 33.101 189.493 42.352 182.6C48.605 177.942 57.05 176.741 63.782 179.553ZM139.5 179.902C150.696 185.101 154.847 196.42 149.623 207.5C145.507 216.226 139.35 220 129.228 220C121.425 220 115.123 216.16 111.664 209.298C108.167 202.359 107.702 199.096 109.488 194.035C111.765 187.581 115.281 183.537 121.168 180.603C127.429 177.484 133.771 177.241 139.5 179.902ZM95 410.5V512H247H399V410.5V309H247H95V410.5ZM341 396V403H247H153V396V389H247H341V396ZM341 460V467H247H153V460V453H247H341V460Z" fill="white"/>
</svg>
