<svg width="320" height="512" viewBox="0 0 320 512" fill="none" xmlns="http://www.w3.org/2000/svg">
<path fill-rule="evenodd" clip-rule="evenodd" d="M48.4892 1.54001C45.1962 2.33601 39.1212 4.64501 34.9892 6.67101C24.4932 11.818 11.8652 24.446 6.73424 34.926C-0.488763 49.676 0.00723232 33.411 0.00723232 255.926C0.00723232 478.441 -0.488763 462.176 6.73424 476.926C11.9312 487.542 24.5062 500.052 35.1542 505.202C49.6132 512.195 44.0492 511.896 159.977 511.896C276.024 511.896 270.647 512.186 284.977 505.169C295.458 500.038 308.089 487.407 313.22 476.926C320.443 462.176 319.947 478.441 319.947 255.926C319.947 33.411 320.443 49.676 313.22 34.926C308.089 24.445 295.458 11.814 284.977 6.68301C270.628 -0.342987 276.112 -0.0519867 159.477 0.0240133C71.4322 0.0820133 53.5102 0.326013 48.4892 1.54001ZM268.153 34.587C278.026 39.15 285.94 49.468 287.395 59.676L288.001 63.926H159.901H31.8012L32.4892 59.676C34.5122 47.168 43.9492 36.538 55.9282 33.276C59.4282 32.323 83.8782 32.082 161.977 32.232L263.477 32.426L268.153 34.587ZM287.831 435.676C287.487 454.887 287.401 455.58 284.707 461.068C281.474 467.65 274.775 474.205 268.153 477.265L263.477 479.426H159.977H56.4772L50.8352 476.656C44.2432 473.418 37.6862 466.711 34.6532 460.102C32.7382 455.929 32.4692 453.302 32.1522 435.676L31.7962 415.926H159.991H288.186L287.831 435.676ZM127.899 434.2C122.716 437.692 119.977 442.438 119.977 447.926C119.977 453.414 122.716 458.16 127.899 461.652C131.214 463.886 131.777 463.926 159.977 463.926C188.177 463.926 188.74 463.886 192.055 461.652C197.238 458.16 199.977 453.414 199.977 447.926C199.977 442.438 197.238 437.692 192.055 434.2C188.74 431.966 188.177 431.926 159.977 431.926C131.777 431.926 131.214 431.966 127.899 434.2Z" fill="white"/>
</svg>
