<svg width="40" height="21" viewBox="0 0 40 21" fill="none" xmlns="http://www.w3.org/2000/svg">
<path fill-rule="evenodd" clip-rule="evenodd" d="M29.5543 0.106168C29.1161 0.296731 28.9289 0.923267 29.173 1.38252C29.2347 1.49855 30.9752 3.28112 33.0408 5.34379L36.7965 9.0941L18.6892 9.13317C-1.02723 9.17567 0.398902 9.13926 0.122238 9.60758C-0.143721 10.0579 0.041372 10.6664 0.512192 10.8899C0.73307 10.9947 2.84231 11.0083 18.7981 11.0083H36.8343L33.0339 14.8172C30.9436 16.9122 29.1947 18.7029 29.1471 18.7968C28.9242 19.2378 29.124 19.8162 29.5729 20.0292C30.1963 20.3251 29.9891 20.4979 34.9878 15.5147C37.4956 13.0147 39.649 10.8321 39.7733 10.6645C40.0756 10.257 40.0756 9.88448 39.7733 9.47694C39.3783 8.94424 30.5159 0.160703 30.2864 0.0744462C30.0019 -0.0324376 29.8587 -0.0262648 29.5543 0.106168Z" fill="#000"/>
</svg>
