<svg width="40" height="21" viewBox="0 0 40 21" fill="none" xmlns="http://www.w3.org/2000/svg">
<path fill-rule="evenodd" clip-rule="evenodd" d="M10.4457 20.0469C10.8839 19.8563 11.0711 19.2298 10.827 18.7706C10.7653 18.6545 9.02481 16.872 6.95917 14.8093L3.20347 11.059L21.3108 11.0199C41.0272 10.9774 39.6011 11.0138 39.8778 10.5455C40.1437 10.0952 39.9586 9.48666 39.4878 9.2632C39.2669 9.15843 37.1577 9.14475 21.2019 9.14475L3.16565 9.14475L6.96613 5.33585C9.05638 3.24091 10.8053 1.45013 10.8529 1.3563C11.0758 0.915325 10.876 0.336837 10.4271 0.12385C9.8037 -0.172034 10.0109 -0.344781 5.01221 4.63837C2.50443 7.13834 0.350969 9.32094 0.226662 9.48853C-0.0755509 9.89607 -0.0755509 10.2686 0.226662 10.6761C0.621694 11.2088 9.48415 19.9924 9.71362 20.0786C9.9981 20.1855 10.1413 20.1793 10.4457 20.0469Z" fill="white"/>
</svg>
