<svg width="100" height="49" viewBox="0 0 100 49" fill="none" xmlns="http://www.w3.org/2000/svg">
<path d="M0.210449 0.210449V32.6035H5.62394V19.646H20.5286V15.5194H5.62394V5.09161H22.8987V0.210449H0.210449ZM88.0768 33.0472C93.5775 33.0472 97.0831 30.4734 99.1687 27.101L94.6871 24.6151C93.2225 27.1447 91.3146 28.5644 87.9867 28.5644C83.3715 28.5644 80.7963 25.9028 80.3986 21.643H99.7915V19.7792C99.7915 13.0347 95.9309 7.26584 87.8992 7.26584C79.9564 7.26584 75.1639 13.2562 75.1639 20.3119C75.1639 27.5892 79.5127 33.0472 88.0768 33.0472ZM94.5097 18.272H80.4428V18.2705C81.0189 14.188 83.6379 11.7033 87.8535 11.7059C92.2906 11.7059 94.2872 14.5004 94.5097 18.272ZM66.7096 8.73485V22.5685C66.7096 26.2255 63.8654 28.8441 60.4774 28.8441C57.0015 28.8441 54.6904 26.4058 54.6904 23.02V8.73485H49.738V23.3809C49.738 29.0697 53.7526 33.0412 59.3504 33.088C65.6283 33.1399 66.7096 28.6015 66.7096 28.6015V30.9942C66.6592 38.5356 63.4963 44.1186 56.4131 44.1186C49.2286 44.1186 47.1364 40.5321 45.8944 36.953H40.7432C43.495 47.1917 51.2916 48.5323 56.4131 48.5323C69.3947 48.5323 71.6757 37.9227 71.6757 30.9942V8.73634L66.7096 8.73485ZM23.4744 15.0312C25.5611 9.88374 29.9544 7.26584 35.4566 7.26584C41.6246 7.26584 45.4849 10.3278 45.4838 16.1404V33.0472H40.3811V28.6019C37.4635 31.5789 35.2359 33.0472 30.7075 33.0472C25.7377 33.0472 22.8976 30.6066 22.8976 26.8346C22.8976 23.9949 24.1399 22.353 26.0482 21.1548C27.8244 20.0456 30.1306 19.4242 34.3904 18.5369C38.8279 17.605 40.3366 16.8067 40.3366 14.9871C40.3366 13.1675 38.9611 11.5256 35.2336 11.5256C31.6394 11.5256 29.4206 13.3894 28.3114 16.5845L23.4744 15.0312ZM32.75 29.0092C37.1426 29.0092 40.5151 25.5366 40.5151 20.9329L40.514 19.9766C39.7583 20.1718 39.2102 20.3269 38.5714 20.5077C37.7278 20.7464 36.7259 21.03 34.8786 21.5098C30.4912 22.6501 28.3125 23.418 28.3125 25.9473C28.3125 27.8997 29.8654 29.0092 32.75 29.0092Z" fill="#3433C4"/>
</svg>
