<svg width="512" height="512" viewBox="0 0 512 512" fill="none" xmlns="http://www.w3.org/2000/svg">
<path fill-rule="evenodd" clip-rule="evenodd" d="M234.509 1.397C214.296 4.813 191.742 14.256 175.969 25.909C140.697 51.966 120.028 92.621 120.013 135.971C119.999 176.728 138.528 215.598 170.288 241.439L174.067 244.514L162.788 248.788C84.6039 278.411 23.5359 347.585 3.43987 429.289C-1.91413 451.056 -1.15113 462.762 6.66487 478.767C11.7319 489.142 22.7779 500.218 33.0089 505.182C46.6909 511.821 47.8159 511.937 95.7409 511.623L138.683 511.342L142.669 508.578C154.436 500.422 154.436 483.265 142.671 475.106L138.685 472.342L97.0969 471.842C56.4139 471.353 55.4179 471.293 51.3169 469.101C45.9269 466.22 42.3979 461.541 41.0379 455.473C40.1089 451.325 40.3159 449.149 42.5099 439.994C57.8909 375.824 102.439 321.541 163.243 292.879C192.838 278.928 222.25 272.462 256.009 272.486C283.054 272.505 298.415 274.934 325.837 283.527C334.737 286.316 338.316 286.981 342.535 286.631C355.16 285.584 363.187 273.539 359.51 261.158C357.585 254.674 352.35 249.803 344.059 246.78L337.918 244.541L341.714 241.459C358.783 227.598 372.531 209.293 381.231 188.842C388.337 172.137 390.982 159.746 391.689 139.842C392.523 116.388 388.522 97.727 378.067 76.302C358.489 36.181 321.058 8.535 276.539 1.315C265.528 -0.470995 245.333 -0.431995 234.509 1.397ZM275.947 42.506C297.041 46.744 316.673 58.849 330.522 76.158C358.494 111.118 358.423 160.654 330.351 195.739C317.664 211.597 299.695 223.151 279.438 228.477C265.202 232.221 246.816 232.221 232.58 228.477C173.357 212.904 143.57 148.044 170.518 93.339C187.068 59.742 223.708 38.235 260.509 40.517C264.909 40.789 271.856 41.685 275.947 42.506ZM370.509 314.685C352.826 319.847 340.002 332.118 333.489 350.108L331.232 356.342L262.359 356.842C194.799 357.332 193.424 357.382 190.208 359.419C185.132 362.633 148.996 400.629 147.415 404.414C145.512 408.967 145.644 416.255 147.708 420.691C150.124 425.881 187.49 463.629 192.509 465.949C196.172 467.642 199.624 467.798 233.509 467.798C267.37 467.798 270.848 467.641 274.509 465.952C290.161 458.728 289.707 436.046 273.777 429.39C270.711 428.108 264.864 427.842 239.815 427.842H209.556L202.283 420.617C198.282 416.643 195.009 412.92 195.009 412.342C195.009 411.764 198.282 408.041 202.283 404.067L209.556 396.842H280.332C358.355 396.842 353.73 397.204 360.75 390.543C363.364 388.062 364.785 384.94 368.094 374.405C372.826 359.341 375.33 355.371 381.078 353.823C383.69 353.12 396.699 352.847 418.301 353.042C456.587 353.388 456.224 353.308 460.421 362.332C465.759 373.809 470.202 391.445 471.509 406.342C472.653 419.375 468.744 441.289 462.378 457.539C459.214 465.614 455.913 469.496 451.066 470.843C446.434 472.129 385.568 472.15 381.092 470.866C374.449 468.961 371.655 464.172 366.093 445.159C363.667 436.865 360.268 432.319 354.55 429.722C341.32 423.712 326.109 433.12 326.031 447.362C326.007 451.748 328.663 462.173 332.739 473.693C339.281 492.183 353.55 505.622 371.64 510.334C379.977 512.506 452.857 512.524 461.001 510.357C475.37 506.533 488.471 496.178 495.182 483.342C499.108 475.834 505.908 456.454 508.342 445.842C512.672 426.96 513.008 400.321 509.146 382.162C505.003 362.683 497.214 342.769 490 333.213C485.085 326.704 474.928 319.345 466.155 315.936L459.509 313.354L418.009 313.144C381.022 312.956 375.857 313.123 370.509 314.685ZM422.509 393.732C406.857 400.956 407.311 423.638 423.241 430.294C430.254 433.224 439.32 431.653 444.877 426.544C452.763 419.295 452.763 404.389 444.877 397.14C439.114 391.842 429.709 390.409 422.509 393.732Z" fill="black"/>
</svg>
