<svg width="283" height="512" viewBox="0 0 283 512" fill="none" xmlns="http://www.w3.org/2000/svg">
<path fill-rule="evenodd" clip-rule="evenodd" d="M18.5218 0.675126C15.0408 1.47713 7.61678 7.01513 4.92578 10.8181C-0.407216 18.3531 -1.49722 27.9981 2.08378 35.9821C3.65678 39.4901 27.8428 64.2321 111.81 148.232L219.519 255.982L111.81 363.732C27.8428 447.732 3.65678 472.474 2.08378 475.982C-1.96222 485.005 0.410788 497.158 7.62779 504.376C12.1068 508.854 19.6428 511.962 26.0218 511.962C38.0228 511.962 31.2908 518.119 159.725 389.685C288.159 261.251 282.002 267.983 282.002 255.982C282.002 243.981 288.159 250.713 159.725 122.279C31.0958 -6.34988 37.9118 -0.121874 26.0218 0.108126C22.9968 0.166126 19.6218 0.421126 18.5218 0.675126Z" fill="white"/>
</svg>
