<svg width="513" height="512" viewBox="0 0 513 512" fill="none" xmlns="http://www.w3.org/2000/svg">
<path fill-rule="evenodd" clip-rule="evenodd" d="M234.509 1.397C214.296 4.813 191.742 14.256 175.969 25.909C140.697 51.966 120.028 92.621 120.013 135.971C119.999 176.707 138.533 215.605 170.252 241.41L173.995 244.455L162.752 248.758C84.2299 278.811 23.5349 347.59 3.43987 429.289C-1.91413 451.056 -1.15113 462.762 6.66487 478.767C11.7339 489.147 22.7799 500.221 33.0089 505.178C47.6129 512.254 38.4179 511.844 181.969 511.82C305.773 511.799 311.686 511.716 315.509 509.952C330.332 503.111 330.92 481.947 316.509 473.997C313.775 472.489 302.086 472.298 184.509 471.842L55.5089 471.342L51.3169 469.101C45.9269 466.22 42.3979 461.541 41.0379 455.473C40.1089 451.325 40.3159 449.149 42.5099 439.994C59.6909 368.314 113.694 308.922 184.009 284.374C207.621 276.13 229.266 272.52 255.509 272.446C288.005 272.355 311.045 276.895 341.743 289.436C356.334 295.396 360.871 296.015 367.509 292.952C379.691 287.329 382.866 270.958 373.711 260.966C371.265 258.295 357.679 251.695 345.714 247.363L337.918 244.541L341.714 241.453C361.744 225.154 376.843 203.376 385.007 179.006C389.448 165.753 391.116 155.976 391.689 139.842C392.523 116.388 388.522 97.727 378.067 76.302C358.489 36.181 321.058 8.535 276.539 1.315C265.528 -0.470995 245.333 -0.431995 234.509 1.397ZM275.947 42.506C297.041 46.744 316.673 58.849 330.522 76.158C358.477 111.098 358.406 160.675 330.351 195.739C317.664 211.597 299.695 223.151 279.438 228.477C265.173 232.228 246.822 232.221 232.509 228.46C165.192 210.77 138.233 130.23 181.52 76.128C204.06 47.957 239.774 35.241 275.947 42.506ZM408.509 323.732C403.668 325.966 400.621 329.132 398.557 334.074C397.278 337.133 397.009 342.917 397.009 367.31V396.842L367.259 396.864C340.475 396.884 337.11 397.07 333.509 398.732C317.857 405.956 318.311 428.638 334.241 435.294C337.3 436.573 343.084 436.842 367.477 436.842H397.009L397.031 466.592C397.051 493.376 397.237 496.741 398.899 500.342C401.133 505.183 404.299 508.23 409.241 510.294C419.194 514.453 430.637 510.052 435.119 500.342C436.781 496.741 436.967 493.376 436.987 466.592L437.009 436.842L466.759 436.82C493.543 436.8 496.908 436.614 500.509 434.952C505.35 432.718 508.397 429.552 510.461 424.61C514.62 414.657 510.219 403.214 500.509 398.732C496.908 397.07 493.543 396.884 466.759 396.864L437.009 396.842L436.987 367.092C436.967 340.308 436.781 336.943 435.119 333.342C430.512 323.361 418.619 319.066 408.509 323.732Z" fill="black"/>
</svg>
